#define logo_width 16
#define logo_height 16
static char logo_bits[] = {
  0x7F, 0xFE, 0x7F, 0xFE, 0x3F, 0xFC, 0x3F, 0xFC, 0x1F, 0xF8, 0x1F, 0xF8, 
  0x0F, 0xF0, 0x0F, 0xF0, 0x07, 0xE0, 0x07, 0xE0, 0x83, 0xC1, 0x83, 0xC1, 
  0x81, 0x81, 0x80, 0x81, 0xF0, 0x0F, 0xFC, 0x3F, };
