/* XPM */
static char *out[] = {
/* columns rows colors chars-per-pixel */
"16 16 2 1 ",
"  c None",
". c #1793D1",
/* pixels */
"                ",
"       ..       ",
"       ..       ",
"       ...      ",
"      ....      ",
"      ....      ",
"     ......     ",
"     ......     ",
"    ........    ",
"    .... ....   ",
"   ....  ....   ",
"  ....    ....  ",
"  ....    ....  ",
" ....      .... ",
" ..         ..  ",
"                "
};
